<svg xmlns="http://www.w3.org/2000/svg" width="1100" height="520" viewBox="0 0 1100 520">

<defs>
  <style>
    .bg{fill:#ffffff}.box{fill:#f8fafc;stroke:#334155;stroke-width:2;rx:12;ry:12}.accent{fill:#e0f2fe;stroke:#0369a1;stroke-width:2;rx:12;ry:12}.warn{fill:#fef3c7;stroke:#b45309;stroke-width:2;rx:12;ry:12}.ok{fill:#dcfce7;stroke:#15803d;stroke-width:2;rx:12;ry:12}.queue{fill:#f3e8ff;stroke:#7e22ce;stroke-width:2;rx:12;ry:12}.txt{font-family:Arial, sans-serif;font-size:16px;fill:#0f172a}.small{font-family:Arial, sans-serif;font-size:13px;fill:#334155}.title{font-family:Arial, sans-serif;font-size:20px;font-weight:bold;fill:#0f172a}.arrow{stroke:#334155;stroke-width:2.5;fill:none;marker-end:url(#arrow)}
  </style>
  <marker id="arrow" markerWidth="10" markerHeight="10" refX="8" refY="3" orient="auto" markerUnits="strokeWidth"><path d="M0,0 L0,6 L9,3 z" fill="#334155"/></marker>
</defs>

<rect class="bg" width="1100" height="520"/>
<text class="title" x="40" y="45">API Gateway como ponto de entrada</text>
<rect class="box" x="70" y="110" width="160" height="60"/><text class="txt" x="120" y="147">Web</text>
<rect class="box" x="70" y="210" width="160" height="60"/><text class="txt" x="112" y="247">Mobile</text>
<rect class="box" x="70" y="310" width="160" height="60"/><text class="txt" x="104" y="347">Parceiro</text>
<rect class="accent" x="400" y="135" width="280" height="210"/>
<text class="title" x="470" y="170">API Gateway</text>
<text class="small" x="435" y="210">Autenticação • Rate limit</text>
<text class="small" x="435" y="238">Roteamento • Logs</text>
<text class="small" x="435" y="266">Cache • Agregação</text>
<text class="small" x="435" y="294">Transformação de payload</text>
<rect class="ok" x="850" y="95" width="190" height="60"/><text class="txt" x="890" y="132">Auth Service</text>
<rect class="ok" x="850" y="190" width="190" height="60"/><text class="txt" x="884" y="227">Catalog Service</text>
<rect class="ok" x="850" y="285" width="190" height="60"/><text class="txt" x="886" y="322">Order Service</text>
<rect class="ok" x="850" y="380" width="190" height="60"/><text class="txt" x="872" y="417">Payment Service</text>
<path class="arrow" d="M230 140 L400 200"/><path class="arrow" d="M230 240 L400 240"/><path class="arrow" d="M230 340 L400 280"/>
<path class="arrow" d="M680 200 L850 125"/><path class="arrow" d="M680 230 L850 220"/><path class="arrow" d="M680 270 L850 315"/><path class="arrow" d="M680 300 L850 410"/>
</svg>